<svg width="20" height="20" viewBox="0 0 20 20" fill="none" xmlns="http://www.w3.org/2000/svg">
<path fill-rule="evenodd" clip-rule="evenodd" d="M2.70594 2.70594C2.98053 2.43135 3.42572 2.43135 3.70031 2.70594L10 9.00531L16.2997 2.70594C16.5493 2.45632 16.9399 2.43362 17.2152 2.63786L17.2941 2.70594C17.5686 2.98053 17.5686 3.42572 17.2941 3.70031L10.9947 10L17.2941 16.2997C17.5437 16.5493 17.5664 16.9399 17.3621 17.2152L17.2941 17.2941C17.0195 17.5686 16.5743 17.5686 16.2997 17.2941L10 10.9947L3.70031 17.2941C3.45068 17.5437 3.06006 17.5664 2.7848 17.3621L2.70594 17.2941C2.43135 17.0195 2.43135 16.5743 2.70594 16.2997L9.00531 10L2.70594 3.70031C2.45632 3.45068 2.43362 3.06006 2.63786 2.7848L2.70594 2.70594Z" fill="#212121"/>
</svg>
