<svg width="24" height="24" viewBox="0 0 24 24" fill="none" xmlns="http://www.w3.org/2000/svg">
<path fill-rule="evenodd" clip-rule="evenodd" d="M20.6853 10.1349L19.6303 9.76065C19.3247 9.65204 19.0796 9.41899 18.9556 9.11934C18.8317 8.81969 18.8406 8.48155 18.9802 8.18886L19.4602 7.17795C19.819 6.42151 19.6633 5.52116 19.0713 4.92916C18.4793 4.33716 17.579 4.18145 16.8225 4.54024L15.8116 5.02111C15.5188 5.16004 15.1808 5.16844 14.8814 5.04424C14.582 4.92003 14.3492 4.67483 14.2407 4.36939L13.8656 3.31514C13.5845 2.52654 12.8377 2 12.0005 2C11.1633 2 10.4165 2.52654 10.1353 3.31514L9.7603 4.37023C9.65162 4.67552 9.41875 4.92051 9.11937 5.04455C8.81999 5.16859 8.48209 5.16008 8.18934 5.02111L7.17843 4.54024C6.42199 4.18145 5.52164 4.33716 4.92964 4.92916C4.33764 5.52116 4.18193 6.42151 4.54072 7.17795L5.02076 8.18886C5.16005 8.48159 5.16883 8.81962 5.04494 9.11918C4.92105 9.41875 4.67607 9.65183 4.37071 9.76065L3.31562 10.1357C2.52682 10.4164 2 11.1631 2 12.0004C2 12.8377 2.52682 13.5844 3.31562 13.8651L4.37071 14.2402C4.67601 14.3488 4.92099 14.5817 5.0449 14.8812C5.1688 15.1806 5.16003 15.5185 5.02076 15.8111L4.54072 16.8221C4.18193 17.5785 4.33764 18.4788 4.92964 19.0708C5.52164 19.6628 6.42199 19.8186 7.17843 19.4598L8.18934 18.9797C8.48202 18.8402 8.82015 18.8314 9.11969 18.9555C9.41923 19.0796 9.65205 19.325 9.7603 19.6306L10.1353 20.6849C10.4165 21.4735 11.1633 22 12.0005 22C12.8377 22 13.5845 21.4735 13.8656 20.6849L14.2407 19.6298C14.3493 19.3245 14.5822 19.0795 14.8817 18.9556C15.1811 18.8317 15.519 18.8404 15.8116 18.9797L16.8225 19.4598C17.579 19.8186 18.4793 19.6628 19.0713 19.0708C19.6633 18.4788 19.819 17.5785 19.4602 16.8221L18.9802 15.8111C18.8409 15.5185 18.8322 15.1806 18.9561 14.8812C19.08 14.5817 19.3249 14.3488 19.6303 14.2402L20.6853 13.8643C21.4741 13.5836 22.001 12.8369 22.001 11.9996C22.001 11.1623 21.4741 10.4156 20.6853 10.1349ZM12.0005 15.987C10.393 15.9637 8.9468 15.005 8.29935 13.5335C7.45529 11.4896 8.42452 9.14818 10.4662 8.29888C12.5099 7.48154 14.8326 8.44301 15.7008 10.4657C16.5448 12.5096 15.5756 14.851 13.5339 15.7003C13.0479 15.9002 12.5259 15.9978 12.0005 15.987Z" fill="white"/>
</svg>
